<?xml version="1.0" encoding="UTF-8"?>
<svg id="Layer_1" xmlns="http://www.w3.org/2000/svg" version="1.1" viewBox="0 0 595.28 841.89">
  <!-- Generator: Adobe Illustrator 29.4.0, SVG Export Plug-In . SVG Version: 2.1.0 Build 152)  -->
  <defs>
    <style>
      .st0 {
        font-family: AktivGrotesk-XBold, AktivGrotesk-XBold;
        font-size: 18px;
        font-weight: 700;
      }

      .st0, .st1 {
        fill: #fff;
      }

      .st2 {
        fill: #231f20;
      }
    </style>
  </defs>
  <rect class="st2" x="246.24" y="307.86" width="73.43" height="73.43" rx="20.99" ry="20.99"/>
  <g id="Generative_Object">
    <path class="st1" d="M284.96,322.89c.22.02.5.06.72.09.14.02.33.06.48.09.12.02.27.06.4.09.07.02.22.06.32.09.09.02.22.06.32.09.03,0,.15.06.24.09.06.02.16.06.24.09.07.03.16.06.24.09s.17.06.24.09c3.01,1.44,5.4,4.09,6.64,7.52.02.06.04.15.08.27.03.07.04.17.08.27.03.07.02.19.08.36.03.1.07.23.08.27.03.11.06.25.08.36.03.16.04.28.08.45.05.18-.06.29.08.54.02.03-.03.14.04.18.14.1.42-.09.44-.09.57.07,1.25-.06,1.84,0,.17.02.39.06.56.09.12.02.28.06.4.09.09.02.22.06.32.09s.22.06.32.09c.04.01.16.06.24.09.07.02.16.06.24.09,2.2.99,4.34,3.06,5.2,5.61.03.08.05.18.08.27.03.08.06.19.08.27.03.1.05.25.08.36.03.11.06.26.08.36.03.13.06.32.08.45.03.21.06.51.08.72.03.5.03,1.13,0,1.63-.02.22-.05.51-.08.72-.02.13-.05.31-.08.45-.02.1-.06.25-.08.36,0,.03-.06.17-.08.27-.02.06-.06.19-.08.27s-.05.19-.08.27c-.95,2.57-2.9,4.69-5.2,5.7-.07.03-.17.07-.24.09-.08.03-.2.08-.24.09-.1.03-.23.07-.32.09-.1.03-.27.08-.32.09-.15.03-.34.07-.48.09-.32.05-.75-.11-1.04.09-9.48.59-19.42-.44-28.95,0-.25-.02-.56-.05-.8-.09-.14-.02-.33-.06-.48-.09-.05,0-.22-.07-.32-.09-.09-.02-.22-.06-.32-.09-.04-.01-.16-.06-.24-.09-.07-.02-.17-.06-.24-.09-2.09-.94-3.95-2.97-4.8-5.34-.03-.08-.05-.18-.08-.27-.03-.08-.06-.19-.08-.27s-.06-.2-.08-.27c-.03-.11-.06-.25-.08-.36-.03-.13-.06-.32-.08-.45-.03-.16-.06-.39-.08-.54-.04-.69-.05-1.76,0-2.44.02-.16.06-.38.08-.54,0-.05.06-.24.08-.36.02-.1.06-.25.08-.36,0-.04.06-.18.08-.27.02-.08.06-.19.08-.27.86-2.42,2.58-4.37,4.72-5.34.07-.03.17-.07.24-.09.08-.03.2-.08.24-.09.1-.03.23-.07.32-.09.1-.02.27-.08.32-.09.15-.03.34-.07.48-.09.61-.05,1.55-.05,2.16,0,.14.02.33.06.48.09.05,0,.21.07.32.09.09.02.22.06.32.09.03,0,.15.06.24.09.06.02.17.06.24.09s.17.06.24.09c.69.32,1.58,1.1,2.24,1.27.4.1.48.11.88,0,.62-.17.92-.46,1.12-1.18.05-.2.05-.3.08-.45.1-.31.03-.46.08-.63.05-.19.05-.33.08-.45.04-.13.05-.25.08-.36.04-.15.05-.25.08-.36.02-.08.05-.18.08-.27.88-2.58,2.84-4.94,5.12-5.98.07-.03.16-.06.24-.09.07-.03.16-.06.24-.09s.17-.07.24-.09c.1-.03.21-.06.32-.09.1-.03.21-.06.32-.09.12-.04.26-.05.4-.09.2-.06.41-.03.64-.09.61-.1,1.21.27,1.28-.72,0,0,.17-.05,0-.09-.03-.4-.03-.48-.4-.63-.44-.18-.7-.03-1.12,0-.23.01-.42.06-.64.09-.15.02-.26.06-.4.09s-.26.05-.4.09c-.12.03-.2.08-.24.09-.12.03-.19.04-.32.09-.09.03-.16.06-.24.09-.09.03-.16.06-.24.09-.15.07-.25.1-.4.18-2.66,1.24-4.52,3.37-5.52,6.43-.04.12-.05.19-.08.27-.03.1-.05.18-.08.27s-.05.18-.08.27c-.03.13-.05.24-.08.36s-.05.24-.08.36-.05.23-.08.36c-.09.33-.03.63-.08.81-.03.11-.25.38-.4.36-.06,0-1.01-.71-1.04-.77s0-.37,0-.5c.02-.16.05-.38.08-.54.01-.07.06-.24.08-.36.02-.1.06-.25.08-.36s.05-.25.08-.36c.01-.05.06-.18.08-.27.02-.08.05-.19.08-.27,1.17-3.44,3.68-6.42,6.72-7.79.07-.03.16-.06.24-.09.07-.03.16-.06.24-.09s.17-.06.24-.09.17-.07.24-.09c.1-.03.22-.06.32-.09s.23-.07.32-.09c.12-.03.28-.07.4-.09.15-.03.33-.07.48-.09.22-.02.51-.08.72-.09.54-.03,1.22-.03,1.76,0Z"/>
  </g>
  <text class="st0" transform="translate(266.49 370.26)"><tspan x="0" y="0">AQI</tspan></text>
</svg>