<?xml version="1.0" encoding="UTF-8" standalone="no"?> <svg width="64" height="64" viewBox="0 0 64 64" fill="none" xmlns="http://www.w3.org/2000/svg">
<path d="M38 52C40.2126 51.9972 42.3467 51.1802 43.9955 49.7048C45.6443 48.2293 46.6924 46.1987 46.94 44H42C40.067 44.0022 38.1859 44.6254 36.634 45.7777C35.082 46.9299 33.9413 48.5503 33.38 50.4C35.28 48.8 38.17 46.68 40.76 46.03L41.24 47.97C39 48.53 36.34 50.52 34.59 52H38Z" fill="black"/>
<path d="M32.05 36.68L33.95 37.32C33.3975 39.5625 33.1022 41.8607 33.07 44.17L35.09 41.76C36.5118 40.0643 37.259 37.9042 37.1889 35.6925C37.1188 33.4807 36.2363 31.3723 34.71 29.77L31.54 33.55C30.5182 34.7683 29.8375 36.2355 29.567 37.8023C29.2965 39.3691 29.4459 40.9797 30 42.47C30.3956 42.8894 30.7599 43.3373 31.09 43.81C31.1375 41.4045 31.4596 39.0124 32.05 36.68V36.68Z" fill="black"/>
<path d="M59.43 19.24L33 3.75V6.43L58.26 21.23C58.4344 21.3363 58.6344 21.3933 58.8386 21.395C59.0429 21.3968 59.2438 21.3432 59.42 21.24C59.5967 21.1398 59.7435 20.9943 59.8455 20.8186C59.9474 20.6428 60.0007 20.4432 60 20.24C60.0003 20.0381 59.9479 19.8396 59.8479 19.6642C59.7479 19.4888 59.6039 19.3426 59.43 19.24Z" fill="black"/>
<path d="M36 16H33V18H36V16Z" fill="black"/>
<path d="M30.62 47.4C30.0587 45.5503 28.918 43.9299 27.366 42.7777C25.8141 41.6254 23.933 41.0022 22 41H17.06C17.3076 43.1987 18.3557 45.2293 20.0045 46.7048C21.6533 48.1802 23.7874 48.9972 26 49H29.41C27.66 47.52 25 45.53 22.76 44.97L23.24 43.03C25.83 43.68 28.72 45.8 30.62 47.4Z" fill="black"/>
<path d="M56 59V22.23L32 8.16L8 22.23V59C8 59.2652 8.10536 59.5196 8.29289 59.7071C8.48043 59.8946 8.73478 60 9 60H31V51H26C23.0832 50.9981 20.2864 49.8386 18.2239 47.7761C16.1614 45.7136 15.0019 42.9168 15 40C15 39.7348 15.1054 39.4804 15.2929 39.2929C15.4804 39.1054 15.7348 39 16 39H22C23.9281 39.0037 25.8213 39.5141 27.49 40.48C27.3379 39.0132 27.4817 37.5308 27.9128 36.1206C28.3439 34.7104 29.0537 33.401 30 32.27L33.85 27.68C34.0209 27.4758 34.265 27.3465 34.53 27.32C34.6608 27.3085 34.7926 27.3229 34.9179 27.3624C35.0431 27.4019 35.1594 27.4656 35.26 27.55C37.4936 29.4238 38.8925 32.1074 39.1493 35.0116C39.4062 37.9158 38.5001 40.8032 36.63 43.04L35.99 43.8C37.7729 42.6225 39.8633 41.9964 42 42H48C48.2652 42 48.5196 42.1054 48.7071 42.2929C48.8946 42.4804 49 42.7348 49 43C48.9981 45.9168 47.8386 48.7136 45.7761 50.7761C43.7136 52.8386 40.9168 53.9981 38 54H33V60H55C55.2652 60 55.5196 59.8946 55.7071 59.7071C55.8946 59.5196 56 59.2652 56 59ZM38 22C38 22.5304 37.7893 23.0391 37.4142 23.4142C37.0391 23.7893 36.5304 24 36 24H28C27.4696 24 26.9609 23.7893 26.5858 23.4142C26.2107 23.0391 26 22.5304 26 22V16C26 15.4696 26.2107 14.9609 26.5858 14.5858C26.9609 14.2107 27.4696 14 28 14H36C36.5304 14 37.0391 14.2107 37.4142 14.5858C37.7893 14.9609 38 15.4696 38 16V22Z" fill="black"/>
<path d="M36.001 20H33V22H36.001V20Z" fill="black"/>
<path d="M31 20H28V22H31V20Z" fill="black"/>
<path d="M31 6.43V3.75L4.57001 19.24C4.39613 19.3426 4.25207 19.4888 4.15209 19.6642C4.05212 19.8396 3.99969 20.0381 4.00001 20.24C3.99928 20.4432 4.05261 20.6428 4.15454 20.8186C4.25646 20.9943 4.40331 21.1398 4.58001 21.24C4.75625 21.3432 4.95715 21.3968 5.16139 21.395C5.36563 21.3933 5.56557 21.3363 5.74001 21.23L31 6.43Z" fill="black"/>
<path d="M31 16H28V18H31V16Z" fill="black"/>
</svg>
