<?xml version="1.0" encoding="UTF-8" standalone="no"?> <svg width="64" height="64" viewBox="0 0 64 64" fill="none" xmlns="http://www.w3.org/2000/svg">
<path d="M51.76 33.68L28.57 17.41C28.4026 17.2939 28.2037 17.2317 28 17.2317C27.7963 17.2317 27.5974 17.2939 27.43 17.41L16.11 25.35V23C16.1341 22.5748 16.0711 22.1491 15.9249 21.749C15.7787 21.349 15.5525 20.983 15.2599 20.6734C14.9674 20.3638 14.6147 20.1172 14.2235 19.9487C13.8324 19.7801 13.4109 19.6932 12.985 19.6932C12.5591 19.6932 12.1376 19.7801 11.7464 19.9487C11.3553 20.1172 11.0026 20.3638 10.7101 20.6734C10.4175 20.983 10.1913 21.349 10.0451 21.749C9.89891 22.1491 9.83593 22.5748 9.86 23V29.79L4.24 33.68C3.92745 33.8987 3.66103 34.1768 3.45595 34.4984C3.25087 34.82 3.11114 35.1789 3.04475 35.5545C2.91066 36.313 3.08341 37.0938 3.525 37.725C3.96658 38.3563 4.64083 38.7862 5.39941 38.9203C6.158 39.0544 6.93878 38.8816 7.57 38.44L9.86 36.83V60C9.86 60.2653 9.96535 60.5196 10.1529 60.7072C10.3404 60.8947 10.5948 61 10.86 61H45.14C45.4052 61 45.6596 60.8947 45.8471 60.7072C46.0346 60.5196 46.14 60.2653 46.14 60V36.83L48.43 38.44C49.0612 38.8816 49.842 39.0544 50.6006 38.9203C51.3592 38.7862 52.0334 38.3563 52.475 37.725C52.9166 37.0938 53.0893 36.313 52.9552 35.5545C52.8212 34.7959 52.3912 34.1216 51.76 33.68V33.68ZM11.86 23C11.8452 22.8434 11.8633 22.6854 11.9131 22.5361C11.9629 22.3869 12.0434 22.2497 12.1493 22.1333C12.2552 22.0169 12.3842 21.924 12.5281 21.8603C12.672 21.7967 12.8276 21.7639 12.985 21.7639C13.1423 21.7639 13.298 21.7967 13.4419 21.8603C13.5858 21.924 13.7148 22.0169 13.8207 22.1333C13.9266 22.2497 14.0071 22.3869 14.0569 22.5361C14.1067 22.6854 14.1248 22.8434 14.11 23V26.8L11.86 28.38V23ZM22.63 59V43.62H33.37V59H22.63ZM44.14 59H35.37V42.62C35.37 42.3548 35.2646 42.1005 35.0771 41.9129C34.8896 41.7254 34.6352 41.62 34.37 41.62H21.63C21.3648 41.62 21.1104 41.7254 20.9229 41.9129C20.7354 42.1005 20.63 42.3548 20.63 42.62V59H11.86V35.43L28 24.1L44.14 35.43V59ZM50.84 36.58C50.6993 36.7758 50.4875 36.9085 50.25 36.9496C50.0125 36.9908 49.7683 36.937 49.57 36.8L28.57 22.06C28.4026 21.9439 28.2037 21.8817 28 21.8817C27.7963 21.8817 27.5974 21.9439 27.43 22.06L6.43 36.8C6.23439 36.8994 6.00922 36.924 5.7968 36.869C5.58439 36.814 5.39937 36.6834 5.27653 36.5016C5.1537 36.3198 5.1015 36.0994 5.12976 35.8818C5.15802 35.6642 5.26479 35.4644 5.43 35.32L28 19.45L50.62 35.32C50.8129 35.4605 50.9437 35.6705 50.9848 35.9056C51.0258 36.1407 50.9739 36.3825 50.84 36.58V36.58Z" fill="black"/>
<path d="M42.78 3C42.5148 3 42.2604 3.10536 42.0729 3.29289C41.8854 3.48043 41.78 3.73478 41.78 4C41.78 4.26522 41.8854 4.51957 42.0729 4.70711C42.2604 4.89464 42.5148 5 42.78 5C47.09 5.01852 51.2169 6.74433 54.2571 9.79945C57.2972 12.8546 59.0027 16.99 59 21.3C59 21.5652 59.1054 21.8196 59.2929 22.0071C59.4804 22.1946 59.7348 22.3 60 22.3C60.2652 22.3 60.5196 22.1946 60.7071 22.0071C60.8946 21.8196 61 21.5652 61 21.3C61.0053 16.4588 59.09 11.8131 55.6742 8.38234C52.2584 4.95157 47.6212 3.01589 42.78 3V3Z" fill="black"/>
<path d="M42.78 7.83997C42.5148 7.83997 42.2604 7.94532 42.0729 8.13286C41.8854 8.3204 41.78 8.57475 41.78 8.83997C41.78 9.10518 41.8854 9.35954 42.0729 9.54707C42.2604 9.73461 42.5148 9.83997 42.78 9.83997C45.8071 9.85584 48.7046 11.0709 50.8376 13.2189C52.9706 15.3669 54.1653 18.2728 54.16 21.3C54.16 21.5652 54.2654 21.8195 54.4529 22.0071C54.6404 22.1946 54.8948 22.3 55.16 22.3C55.4252 22.3 55.6796 22.1946 55.8671 22.0071C56.0546 21.8195 56.16 21.5652 56.16 21.3C56.1653 17.7424 54.7599 14.3278 52.2518 11.8047C49.7437 9.28159 46.3376 7.85584 42.78 7.83997V7.83997Z" fill="black"/>
<path d="M49.33 21.3C49.33 21.5652 49.4354 21.8195 49.6229 22.0071C49.8104 22.1946 50.0648 22.3 50.33 22.3C50.5952 22.3 50.8496 22.1946 51.0371 22.0071C51.2246 21.8195 51.33 21.5652 51.33 21.3C51.3248 19.032 50.425 16.8577 48.826 15.2493C47.2269 13.6409 45.0579 12.7284 42.79 12.71V12.71C42.5248 12.71 42.2704 12.8153 42.0829 13.0029C41.8953 13.1904 41.79 13.4447 41.79 13.71C41.79 13.9752 41.8953 14.2295 42.0829 14.4171C42.2704 14.6046 42.5248 14.71 42.79 14.71C44.5275 14.7284 46.1878 15.4301 47.4118 16.6634C48.6357 17.8968 49.3248 19.5624 49.33 21.3V21.3Z" fill="black"/>
<path d="M42.75 25C43.4921 25 44.2175 24.7798 44.8344 24.3673C45.4513 23.9548 45.932 23.3685 46.2155 22.6827C46.499 21.9969 46.5727 21.2424 46.4272 20.5147C46.2817 19.787 45.9235 19.1189 45.3981 18.5948C44.8726 18.0708 44.2035 17.7144 43.4754 17.5708C42.7474 17.4273 41.993 17.503 41.308 17.7883C40.6229 18.0737 40.038 18.5559 39.6271 19.1739C39.2163 19.7919 38.998 20.5179 39 21.26C39.0026 22.2528 39.3989 23.2041 40.1019 23.9052C40.8049 24.6063 41.7572 25 42.75 25V25ZM42.75 19.51C43.0961 19.51 43.4345 19.6126 43.7222 19.8049C44.01 19.9972 44.2343 20.2705 44.3668 20.5903C44.4992 20.9101 44.5339 21.2619 44.4664 21.6014C44.3988 21.9409 44.2322 22.2527 43.9874 22.4974C43.7427 22.7422 43.4309 22.9089 43.0914 22.9764C42.7519 23.0439 42.4001 23.0092 42.0803 22.8768C41.7605 22.7443 41.4872 22.52 41.2949 22.2322C41.1026 21.9445 41 21.6061 41 21.26C41 21.0307 41.0453 20.8036 41.1334 20.5918C41.2215 20.3801 41.3505 20.1878 41.5132 20.0261C41.6758 19.8644 41.8688 19.7364 42.0811 19.6496C42.2933 19.5627 42.5207 19.5187 42.75 19.52V19.51Z" fill="black"/>
</svg>
