<?xml version="1.0" encoding="UTF-8"?><svg id="Layer_1" xmlns="http://www.w3.org/2000/svg" viewBox="0 0 48 48"><path d="M42,6H6c-2.757,0-5,2.243-5,5v23c0,2.757,2.243,5,5,5v1c0,1.103,.897,2,2,2h3c1.103,0,2-.897,2-2v-1h22v1c0,1.103,.897,2,2,2h3c1.103,0,2-.897,2-2v-1c2.757,0,5-2.243,5-5V11c0-2.757-2.243-5-5-5Zm-8,26c0,1.654-1.346,3-3,3H8c-1.654,0-3-1.346-3-3V13c0-1.654,1.346-3,3-3H31c1.654,0,3,1.346,3,3v19Zm5.5,3c-1.933,0-3.5-1.567-3.5-3.5s1.567-3.5,3.5-3.5,3.5,1.567,3.5,3.5-1.567,3.5-3.5,3.5Zm-1.5-14c.552,0,1,.448,1,1s-.448,1-1,1-1-.448-1-1,.448-1,1-1Zm-1-2c0-.552,.448-1,1-1s1,.448,1,1-.448,1-1,1-1-.448-1-1Zm1,5c.552,0,1,.448,1,1s-.448,1-1,1-1-.448-1-1,.448-1,1-1Zm3-3c.552,0,1,.448,1,1s-.448,1-1,1-1-.448-1-1,.448-1,1-1Zm-1-2c0-.552,.448-1,1-1s1,.448,1,1-.448,1-1,1-1-.448-1-1Zm1,5c.552,0,1,.448,1,1s-.448,1-1,1-1-.448-1-1,.448-1,1-1Zm2-10c0,1.103-.897,2-2,2h-3c-1.103,0-2-.897-2-2v-2c0-1.103,.897-2,2-2h3c1.103,0,2,.897,2,2v2Z"/><path d="M31,12H8c-.552,0-1,.449-1,1v19c0,.551,.448,1,1,1H31c.552,0,1-.449,1-1V13c0-.551-.448-1-1-1Zm-15.293,12.707c-.195,.195-.451,.293-.707,.293s-.512-.098-.707-.293l-2-2c-.391-.391-.391-1.023,0-1.414s1.023-.391,1.414,0l2,2c.391,.391,.391,1.023,0,1.414Zm7,1c-.195,.195-.451,.293-.707,.293s-.512-.098-.707-.293l-6-6c-.391-.391-.391-1.023,0-1.414s1.023-.391,1.414,0l6,6c.391,.391,.391,1.023,0,1.414Zm4-2c-.195,.195-.451,.293-.707,.293s-.512-.098-.707-.293l-3-3c-.391-.391-.391-1.023,0-1.414s1.023-.391,1.414,0l3,3c.391,.391,.391,1.023,0,1.414Z"/><circle cx="39.5" cy="31.5" r="1.5"/><rect x="38" y="12" width="3" height="2"/></svg>