<?xml version="1.0" encoding="utf-8"?>
<!-- Generator: Adobe Illustrator 16.0.0, SVG Export Plug-In . SVG Version: 6.00 Build 0)  -->
<!DOCTYPE svg PUBLIC "-//W3C//DTD SVG 1.1//EN" "http://www.w3.org/Graphics/SVG/1.1/DTD/svg11.dtd">
<svg version="1.1" id="Livello_1" xmlns="http://www.w3.org/2000/svg" xmlns:xlink="http://www.w3.org/1999/xlink" x="0px" y="0px"
	 width="100px" height="100px" viewBox="0 0 100 100" enable-background="new 0 0 100 100" xml:space="preserve">
<rect fill="none" width="100" height="100"/>
<g>
	<path d="M88.956,45.36c-0.204-1.285-1.412-2.162-2.697-1.958l-5.991,0.951c0.021-2.448-0.029-3.955-0.029-3.955H52.154h-4.309
		H19.762c0,0-0.05,1.507-0.029,3.955l-5.991-0.951c-1.286-0.204-2.494,0.673-2.698,1.958c-0.204,1.286,0.673,2.494,1.958,2.698
		l6.848,1.087c0.402,9.95,2.033,25.608,8.141,31.716h19.854h4.309h19.854c6.108-6.107,7.738-21.766,8.142-31.716l6.847-1.087
		C88.283,47.854,89.16,46.646,88.956,45.36z"/>
	<path d="M78.238,32.849H73.72v-1.37l0.013-0.001c0,0-2.731-2.732-16.272-3.616v-1.85c0-3.796-3.34-6.873-7.46-6.873
		s-7.459,3.077-7.459,6.873v1.85c-13.542,0.884-16.273,3.616-16.273,3.616l0.013,0.001v1.37h-4.519
		c-1.732,0-3.137,2.476-3.137,5.529h62.751C81.376,35.324,79.971,32.849,78.238,32.849z M45.791,27.043
		c0-2.142,1.885-3.878,4.209-3.878c2.325,0,4.209,1.736,4.209,3.878v0.651c-0.822-0.03-1.68-0.056-2.57-0.073v-0.032
		c-0.559,0-1.104,0.003-1.639,0.008c-0.534-0.005-1.081-0.008-1.638-0.008v0.032c-0.892,0.018-1.748,0.043-2.571,0.073V27.043z"/>
</g>
</svg>
