<?xml version="1.0" encoding="UTF-8" standalone="no"?> <svg xmlns="http://www.w3.org/2000/svg" width="1706.67" height="1225.43" viewBox="0 0 1706.67 1225.43">
  <g id="Layer_x0020_1" transform="translate(-313.33 -553.93)">
    <path id="Path_11" data-name="Path 11" d="M420.51,1208.15V1071.5c0-66.3,54.18-120.48,120.48-120.48H1792.34c66.28,0,120.48,54.2,120.48,120.48v136.65a59.658,59.658,0,0,1-6.25,26.67h26.28c47.85,0,87.15-39.25,87.15-87.15V641.08c0-47.85-39.25-87.15-87.15-87.15H400.48c-47.85,0-87.15,39.25-87.15,87.15v506.59c0,47.85,39.25,87.15,87.15,87.15h26.27a59.658,59.658,0,0,1-6.25-26.67ZM540.15,849.89a75.815,75.815,0,1,1,53.61-129.43c.61.61,1.18,1.24,1.72,1.89A75.769,75.769,0,0,1,540.15,849.9Zm154.67-75.81a26.669,26.669,0,0,1,26.67-26.67H854.82a26.67,26.67,0,0,1,0,53.34H721.49A26.669,26.669,0,0,1,694.82,774.08Zm329.17,0a26.669,26.669,0,0,1,26.67-26.67h133.33a26.67,26.67,0,1,1,0,53.34H1050.66a26.669,26.669,0,0,1-26.67-26.67Zm329.17,0a26.669,26.669,0,0,1,26.67-26.67h133.33a26.67,26.67,0,1,1,0,53.34H1379.83A26.669,26.669,0,0,1,1353.16,774.08Zm329.17,0A26.669,26.669,0,0,1,1709,747.41h133.33a26.67,26.67,0,1,1,0,53.34H1709A26.669,26.669,0,0,1,1682.33,774.08Z" fill-rule="evenodd"/>
    <path id="Path_12" data-name="Path 12" d="M1852.82,1234.81H480.51a26.669,26.669,0,0,1-26.67-26.67v-63.5H1879.49v63.5a26.669,26.669,0,0,1-26.67,26.67ZM453.84,1091.31V1071.5c0-47.9,39.23-87.15,87.15-87.15H1792.34c47.85,0,87.15,39.25,87.15,87.15v19.81Z"/>
    <path id="Path_13" data-name="Path 13" d="M665.15,1349.97a26.624,26.624,0,1,0-35.84,39.38c.2.19,73.5,65.44-6.57,154.04-115.98,128.35-3.34,228.76-3.02,229.04a26.624,26.624,0,0,0,35.84-39.38c-.2-.19-73.5-65.44,6.57-154.04C778.11,1450.66,665.47,1350.25,665.15,1349.97Z"/>
    <path id="Path_14" data-name="Path 14" d="M927.26,1349.97a26.624,26.624,0,0,0-35.84,39.38c.2.19,73.5,65.44-6.57,154.04-115.98,128.35-3.34,228.76-3.02,229.04a26.624,26.624,0,1,0,35.84-39.38c-.2-.19-73.5-65.44,6.57-154.04C1040.22,1450.66,927.58,1350.25,927.26,1349.97Z"/>
    <path id="Path_15" data-name="Path 15" d="M1189.38,1349.97a26.624,26.624,0,0,0-35.84,39.38c.2.19,73.5,65.44-6.57,154.04-115.99,128.35-3.34,228.76-3.03,229.04a26.624,26.624,0,1,0,35.84-39.38c-.2-.19-73.5-65.44,6.57-154.04,115.98-128.35,3.34-228.76,3.02-229.04Z"/>
    <path id="Path_16" data-name="Path 16" d="M1451.5,1349.97a26.624,26.624,0,0,0-35.84,39.38c.2.19,73.5,65.44-6.57,154.04-115.98,128.35-3.34,228.76-3.03,229.04a26.624,26.624,0,1,0,35.84-39.38c-.2-.19-73.5-65.44,6.57-154.04,115.98-128.35,3.34-228.76,3.02-229.04Z"/>
    <path id="Path_17" data-name="Path 17" d="M1713.61,1349.97a26.624,26.624,0,1,0-35.84,39.38c.2.19,73.5,65.44-6.57,154.04-115.98,128.35-3.34,228.76-3.03,229.04a26.624,26.624,0,0,0,35.84-39.38c-.2-.19-73.5-65.44,6.57-154.04,115.98-128.35,3.34-228.76,3.02-229.04Z"/>
  </g>
</svg>
