<?xml version="1.0" encoding="UTF-8"?>
<!DOCTYPE svg PUBLIC "-//W3C//DTD SVG 1.1//EN" "http://www.w3.org/Graphics/SVG/1.1/DTD/svg11.dtd">
<!-- Creator: CorelDRAW -->
<svg xmlns="http://www.w3.org/2000/svg" xml:space="preserve" width="1.70666in" height="1.70666in" style="shape-rendering:geometricPrecision; text-rendering:geometricPrecision; image-rendering:optimizeQuality; fill-rule:evenodd; clip-rule:evenodd"
viewBox="0 0 1.70666 1.70666"
 xmlns:xlink="http://www.w3.org/1999/xlink">
 <defs>
  <style type="text/css">
   <![CDATA[
    .fil0 {fill:black}
   ]]>
  </style>
 </defs>
 <g id="Layer_x0020_1">
  <metadata id="CorelCorpID_0Corel-Layer"/>
  <path class="fil0" d="M0.710386 1.70657c-0.249886,0 -0.453181,-0.203295 -0.453181,-0.453185 0,-0.163622 0.0874961,-0.313402 0.229236,-0.394039l0 -0.635307c3.93701e-006,-0.123484 0.100465,-0.223945 0.223949,-0.223945 0.12348,0 0.223941,0.100465 0.223941,0.223945l0 0.635311c0.14174,0.0806378 0.229236,0.230421 0.229236,0.394039 0,0.249886 -0.203295,0.453181 -0.453181,0.453181zm0 -0.163059c-0.159972,0 -0.290118,-0.13015 -0.290118,-0.290126 0,-0.152689 0.118563,-0.278197 0.268457,-0.289315l0 -0.677106c0,-0.0119646 0.00969685,-0.0216614 0.0216614,-0.0216614 0.0119685,0 0.0216654,0.00969685 0.0216654,0.0216614l0 0.677106c0.14989,0.011122 0.268453,0.136626 0.268453,0.289315 0,0.159976 -0.130146,0.290126 -0.290118,0.290126zm0 -0.536909l-0.000437008 -7.87402e-006c-0.135878,0.00023622 -0.246354,0.110854 -0.246354,0.246791 0,0.136083 0.110713,0.246795 0.246791,0.246795 0.136083,0 0.246791,-0.110713 0.246791,-0.246795 0,-0.135937 -0.110476,-0.246555 -0.246354,-0.246791l-0.000437008 7.87402e-006z"/>
  <path class="fil0" d="M1.24239 0.260307l-0.185394 0c-0.0119646,0 -0.0216654,-0.00970079 -0.0216654,-0.0216654 0,-0.0119646 0.00970079,-0.0216654 0.0216654,-0.0216654l0.185394 0c0.0119685,0 0.0216654,0.00970079 0.0216654,0.0216654 0,0.0119646 -0.00969685,0.0216654 -0.0216654,0.0216654z"/>
  <path class="fil0" d="M1.24239 0.364465l-0.185394 0c-0.0119646,0 -0.0216654,-0.00969685 -0.0216654,-0.0216654 0,-0.0119646 0.00970079,-0.0216654 0.0216654,-0.0216654l0.185394 0c0.0119685,0 0.0216654,0.00970079 0.0216654,0.0216654 0,0.0119685 -0.00969685,0.0216654 -0.0216654,0.0216654z"/>
  <path class="fil0" d="M1.42779 0.468618l-0.370795 0c-0.0119646,0 -0.0216654,-0.00969685 -0.0216654,-0.0216614 0,-0.0119685 0.00970079,-0.0216654 0.0216654,-0.0216654l0.370795 0c0.0119646,0 0.0216654,0.00969685 0.0216654,0.0216654 0,0.0119646 -0.00970079,0.0216614 -0.0216654,0.0216614z"/>
  <path class="fil0" d="M1.24239 0.57278l-0.185394 0c-0.0119646,0 -0.0216654,-0.00970079 -0.0216654,-0.0216654 0,-0.0119685 0.00970079,-0.0216654 0.0216654,-0.0216654l0.185394 0c0.0119685,0 0.0216654,0.00969685 0.0216654,0.0216654 0,0.0119646 -0.00969685,0.0216654 -0.0216654,0.0216654z"/>
  <path class="fil0" d="M1.42779 0.676933l-0.370795 0c-0.0119646,0 -0.0216654,-0.00970079 -0.0216654,-0.0216654 0,-0.0119646 0.00970079,-0.0216654 0.0216654,-0.0216654l0.370795 0c0.0119646,0 0.0216654,0.00970079 0.0216654,0.0216654 0,0.0119646 -0.00970079,0.0216654 -0.0216654,0.0216654z"/>
 </g>
</svg>
